<?xml version="1.0" encoding="utf-8"?>
<!-- Generator: Adobe Illustrator 22.1.0, SVG Export Plug-In . SVG Version: 6.00 Build 0)  -->
<svg version="1.1" id="Layer_1" xmlns="http://www.w3.org/2000/svg" xmlns:xlink="http://www.w3.org/1999/xlink" x="0px" y="0px"
	 viewBox="0 0 157.8 73.6" style="enable-background:new 0 0 157.8 73.6;" xml:space="preserve">
<style type="text/css">
	.st0{fill:#6A747D;}
	.st1{fill:#727272;}
	.st2{fill:#A30047;}
</style>
<g>
	<g>
		<g>
			<g>
				<path class="st0" d="M0,46.3c4,0,8.1,0,12.1,0c3.7-15,7.4-30,11.2-44.9c-4,0-7.9,0-11.9,0C7.6,16.3,3.8,31.3,0,46.3z"/>
				<path class="st0" d="M17.5,31.4c3.7,0,7.5,0,11.2,0c-0.3,1.1-0.5,1.9-0.7,2.6c0,0.2-0.2,0.8-0.3,1.5c-0.2,1.3-0.1,1.7,0,2
					c0.2,0.5,0.5,0.8,0.6,0.9c1,1.1,2.9,1.4,4.4,0.9c2.1-0.6,3.1-2.4,3.3-2.9c0.4-0.8,0.5-1.5,0.6-1.7c0.1-0.4,0.3-1.6-0.2-2.8
					c-0.4-0.9-1-1.5-2-2.2c-2.3-1.7-3.8-2.3-5.4-3.3c-2.3-1.4-3.3-2.4-3.8-2.8c-0.7-0.7-1.4-1.4-1.9-2.4c-0.9-1.7-1.1-3.2-1.1-3.9
					c-0.2-2,0.3-3.4,0.7-4.9c0.2-0.8,0.7-2.3,1.8-4.1c1.1-1.8,2.2-2.9,2.9-3.5c0.3-0.3,2-1.7,4.6-2.9C34,1,35.6,0.7,36.8,0.5
					c4.3-0.8,7.5-0.2,8.5,0c1.7,0.3,2.6,0.7,3.3,1.1c0.7,0.3,1.8,0.9,2.8,2c1.3,1.3,1.7,2.8,2,3.6c1.1,3.5,0.1,6.8-0.4,8
					c-3.7,0-7.3,0-11,0c0.3-1.3,0.4-2.3,0.4-3.1c0.1-1.2,0-1.7-0.2-2.2C42,9.7,41.7,9,41,8.6c-0.5-0.3-1-0.4-1.6-0.4
					c-0.3,0-1.1-0.1-2,0.2C36,8.9,35.2,9.8,35.1,10c-0.6,0.8-0.8,1.5-0.9,1.8c-0.1,0.3-0.4,1.6,0.2,2.8c0.1,0.3,0.4,0.7,1.3,1.5
					c1.2,1,2.3,1.6,2.8,1.9c0,0,2.4,1.3,4.8,2.9c1.3,0.8,2.2,1.5,3,2.4c0.8,0.9,1.2,1.5,1.3,1.8c0.1,0.2,0.6,1.1,0.9,2.6
					c0.1,0.5,0.3,1.7,0,3.8c-0.4,3.2-1.5,5.6-1.7,6.1c-0.5,1.1-1.2,2.6-2.6,4.2c-0.3,0.4-1.5,1.6-3.4,2.8c-3.6,2.2-7.2,2.6-9.4,2.8
					c-0.6,0.1-4.4,0.4-8.5-0.7c-1.3-0.3-2.4-0.8-3.5-1.5c-0.6-0.4-1.6-1.1-2.4-2.4c-1-1.6-1.1-3.1-1.1-3.7c0-0.6,0-1.3,0.7-4.2
					C17,33.4,17.3,32.2,17.5,31.4z"/>
				<path class="st0" d="M66.3,1.4c-7.5,15-15,30-22.4,44.9c4,0,8,0,12,0c1.2-2.9,2.4-5.7,3.7-8.6c3.2,0,6.3,0,9.5,0
					c-0.1,2.9-0.2,5.8-0.3,8.6c4,0,8.1,0,12.1,0c0-15,0-30,0-44.9C76,1.4,71.1,1.4,66.3,1.4z M69.8,29.5c-2.3,0-4.6,0-6.9,0
					c2.9-6.6,5.7-13.3,8.6-19.9C70.9,16.2,70.4,22.9,69.8,29.5z"/>
				<path class="st0" d="M103.6,30.2c4,0,8.1,0,12.1,0c-0.2,1.3-0.6,3.1-1.3,5.1c-0.4,1-0.8,2.2-1.6,3.5c-0.4,0.7-1.6,2.8-3.7,4.5
					c-2.5,2.1-5.1,2.7-7.5,3.3c0,0-5.7,1.4-12.3,0c-0.5-0.1-0.9-0.2-0.9-0.2c-0.6-0.2-1.4-0.4-2.3-0.9c-0.3-0.2-1.2-0.7-2-1.5
					c-1-1.1-1.4-2.3-1.6-2.8c-0.8-2.4-0.3-4.9,0.3-7.7c0.5-2.3,0.8-3.6,1.7-7.3c0.8-3.3,1.7-6.6,2.4-9.9c0.1-0.4,0.3-1.4,0.7-2.6
					c0.1-0.5,0.5-1.6,0.9-2.6c0.3-0.7,1-2.5,2.5-4.4c0.5-0.6,2.2-2.7,5.1-4.3c1.7-0.9,3.2-1.4,4-1.6c1.4-0.4,2.4-0.5,3.1-0.6
					c1-0.1,4-0.5,8,0c2.1,0.3,3.1,0.6,3.6,0.9c1.5,0.6,2.5,1.4,2.7,1.6c0.4,0.3,1.3,1.1,2,2.2c1.7,2.8,1,6,0.7,7.9
					c-0.2,1-0.5,1.9-0.7,2.4c-4,0-8.1,0-12.1,0c0.4-1.2,0.6-2.1,0.7-2.9c0.3-1.8,0.2-2.4,0-2.8c-0.3-0.6-0.9-1-1-1.1
					C106.3,8,105.8,8,105.3,8c-0.1,0-0.9,0-1.7,0.3c-1.7,0.6-2.5,2.2-2.8,2.8c-0.1,0.3-0.3,0.7-0.5,1.4c-0.3,0.9-0.5,1.6-0.8,2.8
					C99,17.5,98.8,18,98.8,18c-0.8,3.5-1.2,5.2-1.5,6.2c-0.8,3.1-0.8,3.1-1.3,5.3c-0.4,1.8-0.4,2-0.7,2.9c-0.1,0.2-0.5,1.6-0.7,2.7
					c0,0.2-0.1,0.6-0.2,1.3c0,0.4,0,0.6,0,0.8c0.1,1,1.1,1.7,1.2,1.7c0.6,0.4,1.1,0.4,1.7,0.4c0.4,0,1.3,0,2.2-0.5
					c1-0.5,1.5-1.2,1.8-1.7c0.6-0.8,0.7-1.4,1.3-3.6C103.2,31.9,103.5,30.8,103.6,30.2z"/>
				<path class="st0" d="M133.1,1.4c-7.5,15-15,30-22.4,44.9c4,0,8,0,12,0c1.2-2.9,2.4-5.7,3.7-8.6c3.2,0,6.3,0,9.5,0
					c-0.1,2.9-0.2,5.8-0.3,8.6c4,0,8.1,0,12.1,0c0-15,0-30,0-44.9C142.9,1.4,138,1.4,133.1,1.4z M136.7,29.5c-2.3,0-4.6,0-6.9,0
					c2.9-6.6,5.7-13.3,8.6-19.9C137.8,16.2,137.2,22.9,136.7,29.5z"/>
			</g>
			<g>
				<path class="st1" d="M153.8,0.5c-2.2,0-4,1.8-4,4c0,2.2,1.8,4,4,4s4-1.8,4-4C157.8,2.2,156,0.5,153.8,0.5z M153.8,7.7
					c-1.8,0-3.3-1.5-3.3-3.3c0-1.8,1.5-3.3,3.3-3.3s3.3,1.5,3.3,3.3C157.1,6.2,155.6,7.7,153.8,7.7z"/>
				<path class="st1" d="M152.3,2.4h0.7v4.3h-0.7V2.4z M152.6,4.2h1.5c0.1,0,0.2,0,0.3-0.1c0.1,0,0.1-0.1,0.2-0.2
					c0-0.1,0.1-0.2,0.1-0.3c0-0.1,0-0.2-0.1-0.3c0-0.1-0.1-0.2-0.2-0.2c-0.1,0-0.2-0.1-0.3-0.1h-1.5V2.4h1.5c0.2,0,0.5,0.1,0.6,0.2
					c0.2,0.1,0.3,0.3,0.4,0.4c0.1,0.2,0.2,0.4,0.2,0.7c0,0.3-0.1,0.5-0.2,0.7c-0.1,0.2-0.2,0.3-0.4,0.4c-0.2,0.1-0.4,0.2-0.6,0.2
					h-1.5V4.2z M153.7,4.8l0.7-0.1l1.1,2h-0.9L153.7,4.8z"/>
			</g>
		</g>
		<g>
			<g>
				<path class="st2" d="M12.3,63.4c0,1.3,0,2.6,0,3.9c0,0.4,0,0.8,0.1,1.1c0.2,0.5,0.5,0.8,1.1,0.8c1,0.1,1.6-0.4,1.7-1.3
					c0-0.4,0.1-0.8,0.1-1.2c0-2.6,0-5.2,0-7.9c0-0.1,0-0.2,0.2-0.2c0.8,0,1.5,0,2.3,0c0.1,0,0.1,0,0.1,0.1c0,2.7,0,5.4,0,8.1
					c0,0.6,0,1.1-0.2,1.7c-0.3,1-1.1,1.7-2.2,2c-1.1,0.3-2.3,0.3-3.4,0c-1.1-0.3-1.8-1-2-2c-0.2-0.6-0.2-1.2-0.2-1.8
					c0-2.7,0-5.3,0-8c0-0.1,0-0.1,0.2-0.1c0.8,0,1.5,0,2.3,0c0.1,0,0.2,0,0.2,0.1C12.3,60.4,12.3,61.9,12.3,63.4
					C12.3,63.4,12.3,63.4,12.3,63.4z"/>
				<path class="st2" d="M28.6,67.1c0.4,0,0.7,0,1.1,0c0.1,0,0.1,0,0.1,0.1c0,0.4,0,0.7,0.1,1.1c0.2,0.7,0.8,1,1.6,1
					c0.5,0,0.9-0.2,1.2-0.6c0.2-0.3,0.2-0.6,0.3-0.9c0-0.8-0.3-1.3-1.1-1.6c-0.1,0-0.2-0.1-0.3-0.1c-0.5-0.2-1.1-0.4-1.7-0.6
					c-0.4-0.1-0.7-0.3-1-0.5c-0.6-0.4-1-1-1.2-1.7c-0.2-0.8-0.2-1.6,0.1-2.3c0.4-1,1.1-1.7,2.3-2c1-0.2,2-0.2,3,0
					c1.2,0.3,1.8,1,2.1,2.1c0.1,0.3,0.1,0.7,0.1,1c0,0.1,0,0.1-0.1,0.1c-0.7,0-1.4,0-2.1,0c-0.1,0-0.1,0-0.1-0.1
					c0-0.3,0-0.6-0.1-0.8c-0.2-0.5-0.5-0.7-1-0.8c-0.3,0-0.6,0-0.8,0.1c-0.4,0.1-0.7,0.4-0.8,0.8c-0.1,0.3-0.1,0.6,0,0.9
					c0.1,0.3,0.3,0.6,0.5,0.8c0.4,0.3,0.8,0.5,1.3,0.6c0.7,0.2,1.3,0.5,2,0.8c0.7,0.3,1.2,0.8,1.5,1.5c0.2,0.4,0.2,0.8,0.2,1.2
					c0,0.6,0,1.2-0.2,1.8c-0.3,0.9-1,1.5-2,1.8c-1.3,0.4-2.5,0.4-3.8,0.1c-1.1-0.3-1.8-1-2-2c-0.1-0.5-0.2-1-0.2-1.5
					c0-0.1,0-0.1,0.1-0.1C27.9,67.1,28.3,67.1,28.6,67.1z"/>
				<path class="st2" d="M21.3,64.8c0,1,0,1.9,0.2,2.9c0.1,0.3,0.1,0.7,0.3,1c0.3,0.4,0.7,0.6,1.2,0.6c0.5,0,0.9-0.2,1.1-0.6
					c0.2-0.3,0.3-0.7,0.3-1.1c0.1-0.4,0.1-0.8,0.1-1.1c0-0.1,0-0.1,0.1-0.1c0.7,0,1.4,0,2.2,0c0.1,0,0.1,0,0.1,0.1
					c0,0.8-0.1,1.7-0.4,2.5c-0.4,1.1-1.2,1.8-2.5,2c-0.9,0.2-1.8,0.1-2.7-0.1c-1-0.2-1.7-0.9-2.1-1.7c-0.3-0.7-0.5-1.5-0.5-2.2
					c-0.1-1.2-0.1-2.4,0-3.6c0-0.7,0.1-1.5,0.4-2.2c0.4-1.2,1.4-2,2.7-2.3c0.9-0.2,1.8-0.2,2.7,0.1c1.2,0.3,1.9,1.2,2.2,2.3
					c0.1,0.5,0.1,1,0.1,1.6c0,0.1,0,0.1-0.1,0.1c-0.7,0-1.5,0-2.2,0c-0.1,0-0.1,0-0.1-0.1c0-0.5,0-0.9-0.2-1.4
					c-0.1-0.5-0.4-0.8-0.9-0.9c-0.5-0.1-1,0-1.4,0.3c-0.2,0.2-0.3,0.6-0.4,0.9c-0.2,0.8-0.2,1.6-0.2,2.5
					C21.3,64.3,21.3,64.6,21.3,64.8z"/>
				<path class="st2" d="M36.1,65.1c0-1.2,0-2.1,0.1-3c0.1-0.7,0.3-1.4,0.7-1.9c0.6-0.9,1.5-1.4,2.6-1.5c0.8-0.1,1.5-0.1,2.2,0.1
					c1.3,0.4,2,1.2,2.2,2.5c0.1,0.5,0.1,0.9,0.1,1.4c0,0.1,0,0.1-0.1,0.1c-0.7,0-1.5,0-2.2,0c-0.1,0-0.1,0-0.1-0.1
					c0-0.5,0-0.9-0.2-1.4c-0.1-0.5-0.4-0.8-0.9-0.9c-0.5-0.1-1,0-1.4,0.3c-0.2,0.2-0.3,0.6-0.4,0.9c-0.2,0.8-0.2,1.6-0.2,2.5
					c0,1,0,1.9,0.1,2.9c0,0.4,0.1,0.9,0.2,1.3c0.2,0.5,0.4,0.8,1,0.9c0.7,0.2,1.3-0.1,1.6-0.8c0.2-0.4,0.2-0.8,0.3-1.2
					c0-0.3,0-0.6,0-0.9c0-0.1,0-0.1,0.1-0.1c0.7,0,1.4,0,2.2,0c0.1,0,0.1,0,0.1,0.1c0,0.9-0.1,1.7-0.4,2.5c-0.4,1.1-1.3,1.8-2.5,2
					c-1,0.2-1.9,0.1-2.9-0.2c-0.9-0.3-1.4-0.9-1.8-1.6c-0.3-0.7-0.5-1.4-0.5-2.2C36.1,66.2,36.1,65.5,36.1,65.1z"/>
			</g>
			<g>
				<path class="st2" d="M49.7,67.6c0-0.1,0-0.1,0-0.2c0,0,0,0,0-0.1c0-0.3,0-0.3,0.3-0.3c0.6,0,1.2,0,1.8,0c0.1,0,0.1,0,0.1,0.1
					c0,0.1,0,0.2,0,0.3c0,0.3,0,0.5,0.1,0.7c0.2,0.7,0.7,1,1.5,1c0.4,0,0.8-0.2,1.1-0.6c0.2-0.3,0.2-0.6,0.2-0.9
					c0-0.6-0.1-1-0.6-1.4c-0.1-0.1-0.3-0.2-0.4-0.2c-0.5-0.2-1.1-0.5-1.7-0.7c-0.4-0.2-0.8-0.4-1.2-0.6c-0.6-0.4-1-1-1.1-1.7
					c-0.2-0.8-0.2-1.5,0.1-2.2c0.4-1,1.1-1.7,2.1-1.9c0.9-0.2,1.9-0.2,2.8,0c1.1,0.3,1.7,1,1.9,2.1c0.1,0.3,0.1,0.7,0.1,1
					c0,0.1,0,0.1-0.1,0.1c-0.7,0-1.4,0-2.1,0c-0.1,0-0.1,0-0.1-0.1c0-0.3,0-0.6-0.1-0.9c-0.2-0.5-0.5-0.7-1-0.7c-0.2,0-0.3,0-0.5,0
					c-0.5,0.1-0.8,0.4-0.9,0.9c-0.1,0.3-0.1,0.6,0,0.8c0.1,0.3,0.2,0.6,0.5,0.8c0.4,0.3,0.8,0.4,1.2,0.6c0.6,0.2,1.2,0.5,1.8,0.7
					c0.6,0.3,1.1,0.7,1.4,1.4c0.2,0.4,0.2,0.8,0.2,1.2c0,0.6,0,1.2-0.2,1.7c-0.3,0.9-0.9,1.5-1.8,1.8c-1.2,0.4-2.4,0.4-3.6,0.1
					c-1-0.3-1.6-1-1.8-2C49.7,68.3,49.7,68,49.7,67.6z"/>
				<path class="st2" d="M70,66.3c0,1.4,0,2.8,0,4.2c0,0.1,0,0.1-0.1,0.1c-0.6,0-1.2,0-1.9,0c-0.1,0-0.1,0-0.1-0.1
					c0-0.3,0-0.6,0.1-0.9c0,0,0-0.1,0-0.1c-0.1,0-0.1,0-0.1,0c-0.1,0.1-0.2,0.2-0.3,0.4c-0.5,0.7-1.3,1-2.2,0.9
					c-0.6,0-1.1-0.2-1.4-0.6c-0.3-0.3-0.4-0.7-0.5-1.2c-0.1-0.3-0.1-0.7-0.1-1c0-2,0-4,0-6c0-0.1,0-0.2,0.1-0.2c0.7,0,1.3,0,2,0
					c0.1,0,0.1,0,0.1,0.1c0,1.8,0,3.7,0,5.5c0,0.3,0,0.5,0.1,0.8c0.1,0.5,0.3,0.8,1,0.8c0.7-0.1,1-0.7,1-1.2c0-2,0-3.9,0-5.9
					c0-0.1,0-0.2,0.2-0.2c0.6,0,1.3,0,1.9,0c0.1,0,0.1,0,0.1,0.2C70,63.5,70,64.9,70,66.3z"/>
				<path class="st2" d="M87.5,66.5c0-1.4,0-2.8,0-4.2c0-0.1,0-0.2,0.1-0.2c0.6,0,1.3,0,1.9,0c0,0,0.1,0,0.1,0c0,0,0,0.1,0,0.1
					c0,0.3,0,0.6,0,0.9c0,0,0,0,0,0c0.3-0.4,0.6-0.7,0.7-0.8c0.6-0.4,1.2-0.5,1.9-0.4c0.5,0.1,0.9,0.2,1.3,0.6
					c0.3,0.3,0.5,0.8,0.5,1.2c0,0.4,0,0.8,0,1.2c0,1.9,0,3.9,0,5.8c0,0.1,0,0.2-0.2,0.2c-0.7,0-1.3,0-2,0c-0.1,0-0.1,0-0.1-0.1
					c0-1.8,0-3.6,0-5.4c0-0.3,0-0.7,0-1c-0.1-0.5-0.4-0.7-0.9-0.7c-0.7,0-1.1,0.4-1.2,1.2c0,0.1,0,0.3,0,0.4c0,1.8,0,3.7,0,5.5
					c0,0.1,0,0.2-0.2,0.2c-0.7,0-1.3,0-2,0c-0.1,0-0.1,0-0.1-0.1C87.5,69.4,87.5,68,87.5,66.5z"/>
				<path class="st2" d="M78.3,64.9c0-1.9,0-3.8,0-5.7c0-0.1,0-0.1-0.1-0.1c-0.7,0-1.3,0-2,0c0,0-0.1,0-0.1,0c0,0,0,0.1,0,0.1
					c0,1.2,0,2.5,0,3.7c0,0,0,0,0-0.1c-0.1-0.1-0.1-0.2-0.1-0.2c-0.3-0.5-0.8-0.9-1.5-0.9c-0.9-0.1-1.7,0.2-2.3,1
					c-0.3,0.4-0.4,0.9-0.5,1.4c-0.2,1-0.2,1.9-0.2,2.9c0,0.7,0.1,1.3,0.3,2c0.1,0.5,0.3,1,0.8,1.4c0.6,0.5,1.2,0.6,1.9,0.6
					c0.7,0,1.2-0.4,1.5-1c0,0,0.1-0.2,0.2-0.4c0,0,0,0,0-0.1c0,0.4,0,0.7,0,1.1c0,0,0,0.1,0,0.1c0,0,0.1,0,0.1,0c0.6,0,1.2,0,1.9,0
					c0.1,0,0.1,0,0.1-0.1C78.3,68.7,78.3,66.8,78.3,64.9z M76.1,66.1c0,0.6,0,1.2-0.1,1.8c-0.1,0.3-0.1,0.5-0.3,0.7
					c-0.1,0.2-0.3,0.3-0.6,0.3c-0.1,0-0.3,0-0.4,0c-0.3,0-0.5-0.2-0.6-0.5c-0.1-0.3-0.2-0.6-0.2-1c-0.1-0.9-0.1-1.9,0-2.8
					c0-0.3,0.1-0.6,0.2-0.9c0.2-0.4,0.5-0.6,1-0.6c0.4,0,0.8,0.2,0.9,0.6c0.1,0.4,0.2,0.8,0.2,1.2C76.1,65.4,76.1,65.8,76.1,66.1z"
					/>
				<path class="st2" d="M86,63.8c-0.3-1-0.9-1.7-1.9-1.9c-0.9-0.2-1.7-0.2-2.6,0.1c-0.7,0.2-1.2,0.6-1.5,1.2
					c-0.2,0.4-0.3,0.8-0.4,1.2c-0.2,0.9-0.2,1.8-0.1,2.6c0,0.7,0.1,1.4,0.3,2c0.3,0.9,0.9,1.5,1.8,1.7c0.9,0.2,1.8,0.2,2.7,0
					c0.7-0.2,1.3-0.7,1.5-1.4c0.2-0.5,0.3-1,0.3-1.5c0-0.1,0-0.1-0.1-0.1c-0.6,0-1.2,0-1.8,0c-0.1,0-0.1,0-0.1,0.1
					c0,0.3,0,0.7-0.2,1c-0.2,0.4-0.5,0.7-1,0.7c-0.5,0-0.8-0.2-0.9-0.7c0,0,0-0.1,0-0.1c-0.1-0.5-0.1-1-0.2-1.5c0-0.1,0-0.3,0-0.5
					c0.1,0,0.2,0,0.3,0c0,0,0,0,0,0c1.3,0,2.7,0,4,0c0.1,0,0.1,0,0.1-0.1C86.3,65.6,86.3,64.7,86,63.8z M84.1,65.1
					c-0.8,0-1.5,0-2.3,0c0-0.1,0-0.2,0-0.4c0-0.4,0-0.7,0.1-1c0.1-0.2,0.1-0.4,0.3-0.6c0.4-0.3,0.9-0.3,1.3,0
					c0.2,0.2,0.3,0.4,0.4,0.6c0,0.1,0.1,0.2,0.1,0.6C84.1,64.5,84.1,64.8,84.1,65.1z"/>
				<path class="st2" d="M61.1,63.6c0,0.1,0,0.2,0,0.4c0,1.4,0,2.8,0,4.2c0,0.2,0,0.4,0,0.6c0.1,0.3,0.2,0.4,0.5,0.4
					c0.2,0,0.5,0,0.7,0c0.1,0,0.1,0,0.1,0.1c0,0.5,0,0.9,0,1.4c0,0.1-0.1,0.1-0.1,0.1c-0.5,0.1-1.1,0.1-1.6,0.1
					c-0.2,0-0.4,0-0.6-0.1c-0.6-0.1-1-0.5-1.1-1.2c-0.1-0.5-0.1-1-0.1-1c0-0.1,0-1.6,0-4.8c0-0.1,0-0.2,0-0.3c-0.6,0-1,0-1,0
					c0,0,0,0-0.1,0c0,0,0,0,0-0.1c0-0.5,0-0.9,0-1.4c0,0,0-0.1,0-0.1c0,0,0.1,0,0.1,0c0.1,0,0.5,0,1,0c0-0.8,0-1.6,0-2.4
					c0,0,0,0,0-0.1c0,0,0,0,0,0c0.1,0,0.2,0,0.3,0c0.6,0,1.2,0,1.9,0c0,0,0,0,0,0c0,0,0,0,0,0c0,0.8,0,1.6,0,2.4c0.7,0,1.2,0,1.2,0
					c0,0,0,0,0.1,0c0,0,0,0,0,0.1c0,0.5,0,0.9,0,1.4c0,0,0,0.1,0,0.1c0,0,0,0,0,0C62.4,63.6,61.9,63.6,61.1,63.6z"/>
				<path class="st2" d="M98.4,63.6c0,0.1,0,0.2,0,0.4c0,1.4,0,2.8,0,4.2c0,0.2,0,0.4,0,0.6c0.1,0.3,0.2,0.4,0.5,0.4
					c0.2,0,0.5,0,0.7,0c0.1,0,0.1,0,0.1,0.1c0,0.5,0,0.9,0,1.4c0,0.1-0.1,0.1-0.1,0.1c-0.5,0.1-1.1,0.1-1.6,0.1
					c-0.2,0-0.4,0-0.6-0.1c-0.6-0.1-1-0.5-1.1-1.2c-0.1-0.5-0.1-1-0.1-1c0-0.1,0-1.6,0-4.8c0-0.1,0-0.2,0-0.3c-0.6,0-1,0-1,0
					c0,0,0,0-0.1,0c0,0,0,0,0-0.1c0-0.5,0-0.9,0-1.4c0,0,0-0.1,0-0.1c0,0,0.1,0,0.1,0c0.1,0,0.5,0,1,0c0-0.8,0-1.6,0-2.4
					c0,0,0,0,0-0.1c0,0,0,0,0,0c0.1,0,0.2,0,0.3,0c0.6,0,1.2,0,1.9,0c0,0,0,0,0,0c0,0,0,0,0,0c0,0.8,0,1.6,0,2.4c0.7,0,1.2,0,1.2,0
					c0,0,0,0,0.1,0c0,0,0,0,0,0.1c0,0.5,0,0.9,0,1.4c0,0,0,0.1,0,0.1c0,0,0,0,0,0C99.7,63.6,99.2,63.6,98.4,63.6z"/>
			</g>
			<g>
				<path class="st2" d="M104.4,65.6c0,0,0-0.1,0-0.2c0-0.1,0-0.1,0-0.2c0-0.2,0-0.5,0-0.7c0-0.1,0-0.2,0-0.3c0-0.7,0.1-1.4,0.1-2.2
					c0.1-0.5,0.2-1,0.4-1.5c0.4-0.8,1.1-1.4,2-1.7c1.1-0.3,2.2-0.3,3.2,0c0.8,0.3,1.4,0.9,1.7,1.7c0.1,0.3,0.2,0.6,0.2,1
					c0,0,0,0,0,0.1c0,0.2,0,0.3,0,0.3c0,0.2,0,0.3,0,0.3c-0.1,0.1-0.2,0.1-0.2,0.1c-0.6,0-1.3,0-1.9,0c0,0-0.1,0-0.1,0
					c0,0,0-0.1,0-0.1c0,0,0-0.1,0-0.2c-0.1-0.5-0.1-0.8-0.3-1.2c-0.1-0.1-0.1-0.2-0.3-0.3c-0.1-0.1-0.3-0.2-0.5-0.2
					c-0.4-0.1-0.8,0-1.1,0.3c-0.2,0.1-0.3,0.3-0.3,0.5c-0.2,0.4-0.2,0.7-0.3,1.2c0,0.1,0,0.3,0,0.3c0,0.1,0,0.2,0,0.3
					c0,0.1,0,0.1,0,0.5c0,0.5,0,0.7,0,0.8c0,0.1,0,0.3,0,0.4c0,0.1,0,0.2,0,0.4c0,0.3,0,0.5,0,0.8c0,0.1,0,0.3,0,0.7
					c0,0.2,0,0.4,0,0.4c0,0,0,0.2,0,0.3c0.1,0.6,0.1,1.2,0.5,1.7c0.1,0.2,0.3,0.2,0.3,0.3c0.3,0.2,0.5,0.2,0.6,0.2
					c0.1,0,0.2,0,0.2,0c0.4,0,0.7-0.2,0.9-0.5c0.2-0.3,0.3-0.6,0.4-1c0-0.1,0-0.2,0.1-0.3c0-0.1,0-0.1,0-0.3c0-0.1,0-0.1,0-0.1
					c0-0.1,0-0.2,0-0.3c0-0.1,0-0.1,0-0.2c0-0.1,0-0.2,0-0.4c-0.3,0-0.5,0-0.8,0c-0.2,0-0.5,0-0.8,0c0,0,0,0,0,0c0,0,0,0,0,0
					c0-0.8,0-1.4,0-1.5c0,0,0-0.1,0-0.1c0,0,0.1,0,0.1,0c1.1,0,2.1,0,3.2,0c0.1,0,0.2,0,0.4,0c0,0,0.1,0,0.1,0.1
					c0.1,0.1,0.1,0.1,0.1,0.1c0,3.4,0,5.8,0,6c0,0,0,0.1,0,0.1c0,0-0.1,0-0.1,0c-0.5,0-0.9,0-1.4,0c0,0-0.1,0-0.1,0
					c0,0-0.1-0.1,0-0.1c0-0.5,0-1,0-1.5c-0.1,0.2-0.1,0.4-0.2,0.5c-0.2,0.3-0.4,0.5-0.4,0.6c-0.1,0.1-0.2,0.2-0.3,0.3
					c-0.4,0.3-0.8,0.4-1,0.4c-0.1,0-0.2,0-0.3,0c-0.1,0-0.4,0-0.8,0c-0.3,0-0.7-0.1-1.1-0.3c-0.5-0.2-0.7-0.5-0.8-0.6
					c-0.2-0.2-0.3-0.4-0.4-0.7c-0.3-0.5-0.4-1-0.4-1.4c0-0.2-0.1-0.5-0.1-0.7c0,0,0-0.2,0-0.3c0-0.1,0-0.3,0-0.3c0-0.1,0-0.2,0-0.5
					C104.4,66.1,104.4,65.8,104.4,65.6z"/>
				<path class="st2" d="M118,61.8C118.1,61.8,118.1,61.9,118,61.8c0.1,0.8,0.1,1.5,0.1,2.2c0,0,0,0,0,0c-0.1,0-0.2,0-0.3,0
					c-0.2,0-0.4,0-0.6,0c-0.4,0-1.3,0.4-1.5,1c0,0.1,0,0.2-0.1,0.5c0,0.3,0,0.6,0,0.7c0,2.6,0,4.4,0,4.5c0,0,0,0.1,0,0.1
					c0,0-0.1,0-0.1,0c-0.7,0-1.4,0-2.1,0c0,0,0-0.1,0-0.1c0-2.9,0-5.8,0-8.6c0,0,0-0.1,0-0.1c0.7,0,1.4,0,2.1,0c0.1,0,0.1,0,0.1,0
					c0,0,0,0.1,0,0.1c0,0.1,0,0.6,0,1.2c0,0,0,0,0,0c0-0.1,0.2-0.4,0.4-0.7c0.2-0.3,0.4-0.5,0.7-0.6c0.2-0.1,0.6-0.2,0.6-0.2
					c0.1,0,0.1,0,0.1,0C117.7,61.8,117.9,61.8,118,61.8z"/>
				<path class="st2" d="M142.2,66.1c0-0.1,0-0.2,0-0.2c0-0.2,0-0.3,0-0.6c0-0.1,0-0.2,0-0.4c0,0,0-0.2,0-0.3
					c-0.1-0.8-0.3-1.3-0.3-1.3c-0.1-0.4-0.4-0.9-0.9-1.3c-0.2-0.2-0.5-0.3-0.6-0.3c0,0-0.4-0.1-0.8-0.2c-0.1,0-0.2,0-0.2,0
					c0,0-0.1,0-0.2,0c-0.1,0-0.5,0-0.8,0.2c0,0-0.5,0.2-0.9,0.9c0,0,0,0.1,0,0.1c-0.1,0.1-0.1,0.2-0.1,0.2c0-0.2,0-0.3,0-0.5
					c0-0.2,0-0.4,0-0.7c0,0-0.1,0-0.1,0c-0.7,0-1.3,0-2,0c0,0-0.1,0-0.1,0c0,3.9,0,7.9,0,11.8c0,0,0.1,0,0.1,0c0.7,0,1.4,0,2.1,0
					c0,0,0.1,0,0.1,0c0-0.6,0-1.3,0-1.9c0-0.2,0-0.5,0-0.7c0-0.4,0-0.8,0-1.2c0,0,0.1,0.1,0.1,0.2c0.2,0.3,0.5,0.7,0.9,0.8
					c0.2,0.1,0.3,0.1,0.6,0.1c0.1,0,0.3,0,0.6,0c0,0,0.4,0,0.8-0.2c0.8-0.4,1.2-1.3,1.3-1.6c0,0,0.2-0.6,0.3-1.5c0-0.2,0-0.3,0-0.3
					c0-0.2,0-0.3,0-0.5C142.2,66.7,142.2,66.5,142.2,66.1z M139.7,68.2c0,0.1-0.1,0.2-0.1,0.3c-0.2,0.4-0.5,0.6-0.9,0.6
					c-0.4,0-0.7-0.2-0.9-0.6c-0.2-0.4-0.2-0.9-0.2-1.3c0-0.7,0-1.5,0-2.2c0-0.4,0.1-0.7,0.2-1.1c0.2-0.6,0.7-0.8,1.3-0.7
					c0.3,0.1,0.4,0.2,0.6,0.4c0.2,0.3,0.2,0.6,0.3,1c0.1,0.5,0.1,1,0.1,1.5C139.8,66.9,139.8,67.6,139.7,68.2z"/>
				<path class="st2" d="M126,66c0-0.2,0-0.3,0-0.5c0-0.1,0-0.2,0-0.3c0-0.1,0-0.1,0-0.2c0-0.1,0-0.1,0-0.2c0,0,0-0.1,0-0.1
					c0,0,0-0.1,0-0.1c0-0.5-0.1-0.9-0.3-1.3c-0.3-0.7-0.7-1.2-1.4-1.5c-0.3-0.1-0.7-0.2-1.1-0.3c-0.1,0-0.1,0-0.2,0
					c-0.1,0-0.1,0-0.2,0c-0.2,0-0.4,0-0.5,0c-0.1,0-0.1,0-0.2,0c0,0-0.1,0-0.1,0c-0.1,0-0.2,0-0.4,0.1c-0.6,0.1-1.1,0.4-1.5,0.8
					c-0.3,0.3-0.6,0.7-0.7,1.2c-0.1,0.4-0.2,0.8-0.3,1.2c0,0,0,0.1,0,0.1c0,0,0,0.1,0,0.1c0,0.1,0,0.1,0,0.2c0,0.1,0,0.2,0,0.2
					c0,0.2,0,0.4,0,0.6c0,0,0,0.1,0,0.1c0,0.2,0,0.4,0,0.6c0,0.1,0,0.2,0,0.3c0,0.1,0,0.1,0,0.2c0,0.1,0,0.1,0,0.2c0,0,0,0.1,0,0.2
					c0,0.1,0,0.2,0,0.3c0,0.4,0.1,0.7,0.2,1.1c0.2,0.5,0.4,0.9,0.8,1.3c0.3,0.2,0.5,0.4,0.9,0.5c0.3,0.1,0.7,0.2,1,0.2
					c0.1,0,0.2,0,0.3,0c0.2,0,0.3,0,0.5,0c0.1,0,0.2,0,0.2,0c0.2,0,0.4,0,0.6-0.1c0.9-0.2,1.6-0.7,2-1.6c0.3-0.6,0.4-1.3,0.4-1.9
					c0-0.1,0-0.1,0-0.2c0-0.1,0-0.2,0-0.2c0-0.2,0-0.3,0-0.5C126,66.2,126,66.1,126,66z M123.7,66.1c0,0.7,0,1.3-0.1,2
					c0,0.2-0.1,0.5-0.2,0.7c-0.2,0.3-0.5,0.5-0.9,0.5c-0.4,0-0.7-0.2-0.9-0.5c-0.2-0.3-0.2-0.6-0.3-1c-0.1-1-0.1-2.1,0-3.1
					c0-0.4,0.1-0.7,0.2-1c0.3-0.6,0.8-0.8,1.4-0.5c0.2,0.1,0.4,0.3,0.5,0.5c0.1,0.3,0.2,0.7,0.2,1C123.7,65.1,123.7,65.6,123.7,66.1
					z"/>
				<path class="st2" d="M133.8,66.2c0,1.4,0,2.9,0,4.3c0,0.1,0,0.1-0.1,0.1c-0.6,0-1.3,0-1.9,0c0,0-0.1,0-0.1,0c0,0,0-0.1,0-0.1
					c0-0.3,0-0.7,0-1c0,0,0,0,0,0.1c-0.2,0.2-0.3,0.3-0.3,0.4c-0.5,0.7-1.3,1-2.2,0.9c-0.6,0-1.1-0.2-1.5-0.7
					c-0.3-0.3-0.5-0.8-0.5-1.2c-0.1-0.4-0.1-0.7-0.1-1.1c0-2,0-4,0-6.1c0-0.1,0-0.2,0.1-0.2c0.7,0,1.3,0,2,0c0.1,0,0.2,0,0.2,0.1
					c0,1.9,0,3.8,0,5.6c0,0.3,0,0.5,0.1,0.8c0.1,0.5,0.3,0.9,1.1,0.8c0.7-0.1,1.1-0.7,1.1-1.2c0-2,0-4,0-6c0-0.2,0-0.2,0.2-0.2
					c0.7,0,1.3,0,2,0c0.1,0,0.1,0,0.1,0.2C133.8,63.3,133.8,64.8,133.8,66.2z"/>
			</g>
		</g>
	</g>
</g>
</svg>
