<?xml version="1.0" encoding="utf-8"?>
<!-- Generator: Adobe Illustrator 22.1.0, SVG Export Plug-In . SVG Version: 6.00 Build 0)  -->
<svg version="1.1" id="Layer_2" xmlns="http://www.w3.org/2000/svg" xmlns:xlink="http://www.w3.org/1999/xlink" x="0px" y="0px"
	 viewBox="0 0 187.7 130.1" style="enable-background:new 0 0 187.7 130.1;" xml:space="preserve">
<style type="text/css">
	.st0{fill:#FFFFFF;}
	.st1{fill:#00649D;}
	.st2{font-family:'Calibri';}
	.st3{font-size:10px;}
	.st4{letter-spacing:2;}
	.st5{fill:#242424;}
	.st6{font-family:'AbeatbyKai';}
	.st7{font-size:14px;}
</style>
<g>
	<path id="back" class="st0" d="M187.5,80.1v46.2c0,2.1-1.7,3.8-3.8,3.8H3.8c-2.1,0-3.8-1.7-3.8-3.8V51.4c0-2.1,1.7-3.8,3.8-3.8
		h52.5c1-1.1,2.2-2.3,3.8-3.5c1.7-1.3,3.3-2.2,4.6-2.8c0.1-2.5,0.8-9.7,6.3-16.2c1.8-2.2,5.6-6,11.8-8.2c4.6-1.6,8.6-1.6,10.9-1.4
		c1.8-2.7,5.2-7,10.9-10.4c3.2-1.9,9-4.8,16.8-5.1c3.2-0.1,8.2,0.1,13.8,2.3c9.6,3.7,14.7,10.7,16.2,12.8
		c6.9,10.1,6.1,20.6,5.8,23.5c2.5,0.4,7.6,1.5,12.6,5.3c1.2,0.9,5.6,4.5,8.5,11c1.3,2.9,1.8,5.6,2.1,7.5c1.4,1.2,3.8,3.4,5.5,7.1
		C187.9,74.2,187.8,78.5,187.5,80.1z"/>
	<path class="st1" d="M183.5,126.1H4.1v-14.4h179.4V126.1z"/>
	<g id="bottom_x5F_text">
		<text transform="matrix(1.021 0 0 1 171.7314 122.0307)" class="st0 st2 st3 st4">s</text>
		<text transform="matrix(1.021 0 0 1 165.6481 122.0292)" class="st0 st2 st3 st4">s</text>
		<text transform="matrix(1.021 0 0 1 158.4814 122.0293)" class="st0 st2 st3 st4">e</text>
		<text transform="matrix(1.021 0 0 1 151.0752 122.0305)" class="st0 st2 st3 st4">n</text>
		<text transform="matrix(1.021 0 0 1 143.9814 122.029)" class="st0 st2 st3 st4">e</text>
		<text transform="matrix(1.021 0 0 1 138.5022 122.0304)" class="st0 st2 st3 st4">r</text>
		<text transform="matrix(1.021 0 0 1 131.5022 122.029)" class="st0 st2 st3 st4">a</text>
		<text transform="matrix(1.021 0 0 1 122.3564 122.0298)" class="st0 st2 st3 st4">w</text>
		<text transform="matrix(1.021 0 0 1 115.4397 122.0299)" class="st0 st2 st3 st4">a</text>
		<text transform="matrix(1.021 0 0 1 103.6481 122.0292)" class="st0 st2 st3 st4">h</text>
		<text transform="matrix(1.021 0 0 1 96.8981 122.0299)" class="st0 st2 st3 st4">g</text>
		<text transform="matrix(1.021 0 0 1 89.3982 122.0304)" class="st0 st2 st3 st4">u</text>
		<text transform="matrix(1.021 0 0 1 82.0647 122.0293)" class="st0 st2 st3 st4">o</text>
		<text transform="matrix(1.021 0 0 1 76.5647 122.0299)" class="st0 st2 st3 st4">r</text>
		<text transform="matrix(1.021 0 0 1 69.1272 122.0294)" class="st0 st2 st3 st4">h</text>
		<text transform="matrix(1.021 0 0 1 63.6897 122.0295)" class="st0 st2 st3 st4">t</text>
		<text transform="matrix(1.021 0 0 1 52.6897 122.0296)" class="st0 st2 st3 st4">y</text>
		<text transform="matrix(1.021 0 0 1 47.1897 122.0299)" class="st0 st2 st3 st4">t</text>
		<text transform="matrix(1.021 0 0 1 42.8147 122.0299)" class="st0 st2 st3 st4">i</text>
		<text transform="matrix(1.021 0 0 1 37.2522 122.0298)" class="st0 st2 st3 st4">r</text>
		<text transform="matrix(1.021 0 0 1 29.8147 122.0299)" class="st0 st2 st3 st4">u</text>
		<text transform="matrix(1.021 0 0 1 23.5022 122.0299)" class="st0 st2 st3 st4">c</text>
		<text transform="matrix(1.021 0 0 1 16.3772 122.0299)" class="st0 st2 st3 st4">e</text>
		<text transform="matrix(1.021 0 0 1 10.3146 122.0299)" class="st0 st2 st3 st4">s</text>
	</g>
	<g>
		<g>
			<g id="i_8_">
				<path class="st5" d="M4.4,66.3c1.8,0,3.6,0,5.5,0c0,13.8,0.1,27.5,0.1,41.3c-1.9,0-3.8,0.1-5.7,0.1C4.3,93.8,4.4,80,4.4,66.3z"
					/>
				<path class="st5" d="M4.3,51.7c1.8,0,3.7,0,5.5,0c0,3.3,0,6.5,0,9.8c-1.9,0-3.7,0-5.6,0C4.3,58.2,4.3,54.9,4.3,51.7z"/>
			</g>
			<path id="f_8_" class="st5" d="M21.4,107.5c-1.9,0-3.8-0.1-5.7-0.1c0-14,0-28.1,0-42.1c0-1.2,0-5.1,2.9-8.6
				c4.2-5.2,10.9-4.8,11.5-4.8c5.3,0,10.6-0.1,15.9-0.1c0,1.8,0.1,3.6,0.1,5.4c-5.5,0-11.1,0-16.6,0c-0.8,0-2.9,0-4.9,1.4
				c-1.5,1.1-2.2,2.5-2.5,3.2c-0.9,1.9-0.8,3.6-0.8,4.4c0,3.4,0,6.9,0,10.3c6.2,0,12.3,0,18.5,0c0,1.8,0,3.5,0,5.3
				c-6.2,0-12.3,0.1-18.5,0.1C21.5,90.5,21.4,99,21.4,107.5z"/>
			<path id="e_8_" class="st5" d="M88.7,76.8c-3.8-7.6-10.9-10.2-12.5-10.7c-1.8-0.6-8.1-2.4-15.1,0.5c-1.1,0.5-6.2,2.7-9.8,8.5
				c-1,1.6-4,6.9-3.2,14c0.1,1.2,0.8,5.8,4.1,10.4c2.9,4,6.4,6,7.4,6.5c2,1.1,5.9,2.7,10.8,2.4c1.1,0,5.9-0.3,10.8-3.6
				c3.8-2.5,5.8-5.5,6.3-6.3c1.2-1.8,1.8-3.5,2.2-4.8c-2,0-4-0.1-6-0.1c-0.7,1.5-2.6,5.3-6.8,7.5c-5.8,3.1-13.1,1.8-17.8-2.4
				c-4.1-3.6-5-8.3-5.2-10c12.3-0.1,24.5-0.1,36.8-0.2C91,86.8,91.3,82,88.7,76.8z M53.9,83.6c0.2-1.3,1.2-5.7,5.3-9.1
				c4-3.4,8.4-3.6,9.8-3.6c1.3,0,5.5-0.1,9.6,2.7c5.1,3.5,6.3,8.9,6.5,10.1C74.8,83.6,64.4,83.6,53.9,83.6z"/>
			<path id="s_8_" class="st5" d="M114.5,76.6c2,0,4,0,6,0c0-1.1-0.1-3.4-1.4-5.8c-2.5-4.3-7-5.2-7.9-5.4c-4.7-0.9-8.3,1.5-9.2,2.1
				c-0.8,0.6-3.2,2.3-4.4,5.6c-0.2,0.5-1.4,4.3,0.4,8.3c0.3,0.7,1.3,2.8,3.5,4.4c0.9,0.6,1.6,0.9,3.1,1.5c2.7,1.1,3.3,0.8,5.7,1.8
				c1.8,0.7,2.9,1.2,4,2.4c1,1.2,1.4,2.4,1.5,3c0.1,0.5,0.7,3.3-1.2,5.8c-1.3,1.7-3.1,2.3-3.8,2.5c-0.7,0.2-2.6,0.7-4.7-0.2
				c-2.5-1-3.5-3.2-3.8-3.8c-0.7-1.5-0.8-3-0.7-3.7c-2,0-3.9,0-5.9-0.1c0,1.2,0,3.4,1.1,5.9c0.3,0.7,1.1,2.4,2.8,4
				c2.4,2.3,5,3.1,5.7,3.3c5.5,1.5,10.1-1.3,10.8-1.8c0.9-0.6,3.1-2.1,4.6-5c1.4-2.8,1.3-5.5,1.3-6.6c0-0.5-0.5-5.4-4.3-8.4
				c-1.5-1.2-3.1-1.8-4.3-2.2c-2-0.8-2.4-0.6-4.8-1.5c-3.1-1.2-3.9-2.2-4.3-2.6c-0.7-1-1-2-1.1-2.5c-0.1-0.4-0.5-2.6,1-4.6
				c1.2-1.5,2.8-1.9,3.3-2c2.2-0.5,5.1,0.1,6.4,2.4C114.5,74.6,114.5,76,114.5,76.6z"/>
			<path id="t_8_" class="st5" d="M142,103.5c0,1.6,0,3.1,0,4.7c-1,0.1-2.5,0.2-4.2-0.1c-1-0.1-2.6-0.4-4.6-1.4
				c-0.8-0.4-2.2-1.1-3.5-2.6c0,0-0.6-0.6-1-1.4c-1.8-2.9-1.8-7.4-1.8-8.3c-0.1-3.1-0.1-6.2-0.1-9.3c-0.1-11.2-0.1-22.3,0.1-33.3
				c1.9,0,3.8,0,5.8,0.1c0,4.8,0,9.6,0.1,14.3c3.1,0,6.2,0,9.4-0.1c0,1.8,0,3.6,0,5.5c-3.1,0-6.3,0-9.4,0c0,7.6,0,15.1,0.1,22.7
				c-0.1,0.7-0.4,4.4,2.2,6.9c1.1,1.1,2.3,1.6,2.7,1.8C139.4,103.7,141.1,103.6,142,103.5z"/>
		</g>
	</g>
	<g>
		<text transform="matrix(1 0 0 1 146.3946 108.5413)" class="st5 st6 st7 st4">2</text>
		<text transform="matrix(1 0 0 1 156.8948 108.5417)" class="st5 st6 st7 st4">k</text>
		<text transform="matrix(1 0 0 1 173.895 108.5404)" class="st5 st6 st7 st4">9</text>
		<text transform="matrix(1 0 0 1 166.9082 108.5409)" class="st5 st6 st7 st4">1</text>
	</g>
	<path class="st1" d="M53.8,68.8c-0.3-1.7-0.4-4.2,0-7.1c0.1-0.9,0.7-4.2,2.7-7.7c3.8-6.6,10.2-9.4,12.4-10.2
		c-0.1-1.6-0.2-3.8,0.4-6.5c1.2-5.7,4.5-9.6,6.5-11.5c5.2-5,11.1-6,12.3-6.2c3.2-0.5,6-0.2,7.7,0.2c1.2-2.1,3.3-5.3,6.8-8.3
		c5.9-5.1,11.9-6.6,13.7-7c1.9-0.4,6-1.1,11.2-0.3c6.7,1.1,11.5,4.1,13.6,5.7c6.4,4.8,9.1,10.6,9.9,12.5c3.8,8.9,2.1,17,1.4,19.8
		c2.1-0.1,6.5,0,11.3,2.4c1.1,0.6,4.8,2.5,7.9,6.6c3.1,4.1,4.2,8.2,4.6,10.3c-1.5-0.8-5.2-2.4-10.1-1.9c-6.4,0.7-10.3,4.7-11.3,5.7
		c-0.8,0.9-5.1,5.7-4.8,12.9c0.2,5.1,2.6,8.7,3.6,10c-6.3,0.1-12.5,0.1-18.8,0.2c0-5.1-0.1-10.1-0.1-15.2c3.1,0,6.2,0,9.3,0
		c0-3.1,0-6.2,0-9.3c-3,0-6.1,0-9.1,0c0-4.7,0-9.4,0-14.1c-3.4,0-6.9,0-10.3,0c0,8.3-0.1,16.6-0.1,24.9c-0.3-1.4-1.3-5-4.7-8.1
		c-3.6-3.3-7.7-4-9.4-4.1c-0.8-0.1-8.2-0.6-13.5,5.2c-3.7,4.1-4.1,8.9-4.2,10.3c-0.8-2.2-3.5-8.4-10.3-12.4c-0.8-0.5-5-2.9-11-3.3
		c-4.6-0.3-8.1,0.8-9.1,1.1C58.2,65.1,55.3,67.4,53.8,68.8z"/>
	<path class="st1" d="M183.6,77.7c0,8.6-7.1,15.7-15.7,15.7c-8.7,0-15.7-7-15.7-15.7c0-8.6,7.1-15.7,15.7-15.7
		S183.6,69.1,183.6,77.7z"/>
	<g id="lock">
		<path class="st0" d="M163.5,74.3c-0.3-2.8,1.9-5.2,4.4-5.3c2.6-0.1,5,2.3,4.8,5.3c0.9,0,1.8,0,2.7,0c0-0.2,0.2-4.3-3-6.7
			c-2.6-1.9-6.3-1.7-8.8,0.3c-2.8,2.3-2.6,5.9-2.6,6.3C161.8,74.3,162.7,74.3,163.5,74.3z"/>
		<path class="st0" d="M176.9,86.2c0-3.4,0-6.8,0-10.3c0-0.1-0.1-0.3-0.3-0.5c-0.3-0.3-0.8-0.3-0.8-0.3c-5.1,0-10.2,0-15.3,0
			c0,0-0.4-0.1-0.7,0.1c-0.2,0.1-0.2,0.4-0.3,0.4c0,5.7,0,9.9,0,10.5c0,0.1,0,0.4,0.2,0.6c0.2,0.2,0.5,0.2,0.7,0.2
			c5.2,0,10.4,0,15.6,0c0.2,0.1,0.5,0,0.7-0.2C177,86.5,176.9,86.2,176.9,86.2z M169.7,84.3c-1,0-2,0-3.1,0c0.3-0.8,0.7-1.6,1-2.4
			c-0.7-0.2-1.2-0.9-1.2-1.6c0-0.9,0.7-1.6,1.6-1.6c0.9,0,1.7,0.7,1.8,1.5c0.1,0.8-0.4,1.5-1.2,1.7C169,82.7,169.3,83.5,169.7,84.3z
			"/>
	</g>
</g>
</svg>
